<svg width="19" height="20" viewBox="0 0 19 20" fill="none" xmlns="http://www.w3.org/2000/svg">
<path d="M12.9995 5.49951L5.18934 13.4393C4.90804 13.7206 4.75 14.1021 4.75 14.5C4.75 14.8978 4.90804 15.2793 5.18934 15.5606C5.47064 15.8419 5.85218 16 6.25 16C6.64783 16 7.02936 15.8419 7.31066 15.5606L16.6208 6.12083C16.8993 5.84226 17.1203 5.51154 17.2711 5.14756C17.4219 4.78359 17.4995 4.39348 17.4995 3.99951C17.4995 3.60555 17.4219 3.21544 17.2711 2.85146C17.1203 2.48748 16.8993 2.15677 16.6208 1.87819C16.3422 1.59962 16.0115 1.37864 15.6475 1.22787C15.2835 1.07711 14.8934 0.999512 14.4995 0.999512C14.1055 0.999512 13.7154 1.07711 13.3514 1.22787C12.9874 1.37864 12.6567 1.59962 12.3781 1.87819L3.06802 11.318C2.22411 12.1619 1.75 13.3065 1.75 14.5C1.75 15.6934 2.22411 16.838 3.06802 17.682C3.91193 18.5259 5.05653 19 6.25 19C7.44348 19 8.58807 18.5259 9.43198 17.682L17.1245 9.99951" stroke="#7A7775" stroke-width="2" stroke-linecap="round" stroke-linejoin="round"/>
</svg>
